<svg xmlns="http://www.w3.org/2000/svg" xmlns:xlink="http://www.w3.org/1999/xlink" xml:space="preserve" version="1.1" style="shape-rendering:geometricPrecision;text-rendering:geometricPrecision;image-rendering:optimizeQuality;" viewBox="0 0 333 333" x="0px" y="0px" fill-rule="evenodd" clip-rule="evenodd"><defs><style type="text/css">
   
    .fil0 {fill:#A1E5AB}
   
  </style></defs><g><path class="fil0" d="M73 56c1,-15 19,-24 39,-29 7,-1 22,2 27,-1 2,-1 -11,-6 -19,-8 21,-1 37,4 47,16 9,-12 25,-17 46,-16 -7,2 -20,7 -18,8 4,3 20,0 27,1 20,5 38,14 38,29 36,-29 58,-8 63,19 6,27 -1,49 -44,50 34,42 9,88 -39,128 0,-7 0,-14 0,-22 -4,10 -11,23 -17,27 -12,9 -18,13 -31,36 0,-12 -3,-21 -6,-28 -3,28 -15,28 -19,49 -10,-11 -16,-21 -19,-49 -4,7 -6,16 -6,28 -14,-23 -20,-27 -32,-36 -5,-4 -12,-17 -16,-27 0,8 0,15 0,22 -48,-40 -74,-86 -40,-128 -42,-1 -50,-23 -44,-50 5,-27 27,-48 63,-19zm94 13c-9,-9 -24,-17 -46,-11 -23,7 -37,35 -29,65 -26,14 -36,49 -16,70 10,11 28,21 50,26 -1,-1 -1,-2 -1,-3 -3,-8 -6,-17 -9,-25 -7,-2 -13,-6 -17,-11 -5,3 -11,8 -15,12 -1,1 -3,1 -4,1 0,-1 -1,-3 0,-4 5,-5 11,-9 16,-12 -1,-3 -3,-6 -3,-10 0,1 -1,1 -1,1l0 0c-6,2 -12,5 -17,9 -1,1 -3,1 -3,0 -1,-1 -1,-3 0,-3 5,-5 12,-9 19,-11l0 0c0,0 1,0 2,0 0,-1 0,-2 0,-3 1,-2 2,-4 3,-6 -2,0 -4,0 -6,1 -6,1 -11,4 -16,8 -1,1 -3,1 -3,0 -1,-1 -1,-3 0,-4 5,-4 12,-7 18,-9 3,-1 7,-1 10,-1 3,-3 6,-6 10,-8 2,-1 5,-3 9,-4 -6,-5 -9,-14 -9,-24 0,-17 11,-31 25,-31 13,0 25,14 25,31 0,7 -2,13 -5,18l13 -1 12 1c-3,-5 -4,-11 -4,-18 0,-17 11,-31 25,-31 13,0 25,14 25,31 0,10 -4,19 -9,24 3,1 6,3 9,4 3,2 7,5 9,8 3,0 7,0 10,1 7,2 13,5 18,9 1,1 2,3 1,4 -1,1 -3,1 -4,0 -4,-4 -10,-7 -16,-8 -2,-1 -4,-1 -5,-1 1,2 2,4 2,6 0,1 0,2 0,3 1,0 2,0 3,0l0 0c6,2 13,6 18,11 1,0 2,2 1,3 -1,1 -3,1 -4,0 -5,-4 -11,-7 -17,-9l0 0c0,0 0,0 -1,-1 0,4 -1,7 -3,10 6,3 11,7 16,12 1,1 1,3 0,4 -1,0 -3,0 -3,-1 -5,-4 -10,-9 -16,-12 -4,5 -10,9 -16,11 -4,8 -7,17 -9,25 -1,1 -1,2 -1,3 21,-5 39,-15 49,-26 20,-21 10,-56 -16,-70 8,-30 -6,-58 -28,-65 -23,-6 -38,2 -46,11zm0 100c-10,0 -14,0 -16,-3 -5,-4 -13,-12 -17,-21l0 0c-4,0 -8,-2 -12,-4 -6,2 -11,4 -16,8 2,0 3,0 5,0 1,1 2,2 2,3 0,1 -2,2 -3,2 -2,0 -5,-1 -8,-1 -2,3 -3,6 -4,8 5,-1 10,-1 15,-1 1,1 2,2 2,3 0,1 -2,2 -3,2 -4,0 -9,0 -14,1 0,3 1,6 3,8 5,-2 11,-4 16,-3 1,0 2,1 2,2 0,2 -1,3 -2,2 -4,0 -9,1 -13,3 4,4 9,7 15,9 4,9 7,18 10,28 7,21 25,23 38,23 13,0 30,-2 37,-23 3,-10 6,-19 10,-28 6,-2 12,-5 16,-9 -5,-2 -9,-3 -13,-3 -1,1 -3,0 -3,-2 0,-1 1,-2 2,-2 5,-1 11,1 17,3 1,-2 2,-5 2,-8 -5,-1 -10,-1 -14,-1 -1,0 -2,-1 -2,-2 0,-1 0,-2 2,-3 4,0 9,0 14,1 0,-2 -2,-5 -4,-8 -3,0 -5,1 -8,1 -1,0 -2,-1 -2,-2 -1,-1 0,-2 1,-3 2,0 3,0 5,0 -4,-4 -10,-6 -16,-8 -3,2 -7,4 -11,4l-1 0c-3,9 -12,17 -16,21 -3,3 -7,3 -16,3zm0 31c2,-4 35,-11 27,6 -5,8 -14,12 -27,12 -14,0 -22,-4 -27,-12 -9,-17 24,-10 27,-6zm0 22c17,0 32,-6 36,-32 -19,2 -30,0 -36,-6 -7,6 -17,8 -36,6 3,26 18,32 36,32zm53 -143c1,-7 -3,-12 -9,-14 -6,-3 -13,-1 -19,4 9,-2 24,3 28,10zm-21 24c-6,0 -11,6 -11,15 0,5 3,10 7,13l0 0 -12 0c-3,-5 -5,-11 -5,-18 0,-15 10,-27 22,-27 12,0 21,12 21,27 0,15 -9,26 -20,27 0,-1 0,-1 0,-2 1,-2 -1,-5 -3,-6 1,0 1,0 1,0 7,0 12,-6 12,-14 0,-3 -1,-6 -2,-8 0,2 -2,3 -3,3 -3,0 -4,-2 -4,-5 0,-2 1,-3 2,-4 -1,-1 -3,-1 -5,-1zm71 15c20,4 38,3 46,-16 2,-11 0,-23 -6,-32 -14,-18 -33,-9 -55,7l0 1c19,-11 35,-15 47,-2 7,8 9,18 6,27 -6,15 -21,17 -38,14l0 1zm-157 -39c-1,-7 4,-12 9,-14 6,-3 14,-1 19,4 -8,-2 -24,3 -28,10zm21 24c6,0 11,6 11,15 0,5 -2,10 -6,13l0 0 11 0c3,-5 5,-11 5,-18 0,-15 -10,-27 -21,-27 -12,0 -22,12 -22,27 0,15 9,26 21,27 -1,-1 -1,-1 -1,-2 0,-2 1,-5 3,-6 0,0 -1,0 -1,0 -6,0 -12,-6 -12,-14 0,-3 1,-6 2,-8 1,2 2,3 4,3 2,0 4,-2 4,-5 0,-2 -1,-3 -3,-4 2,-1 3,-1 5,-1zm-71 15c-20,4 -38,3 -45,-16 -3,-11 -1,-23 6,-32 13,-18 33,-9 54,7l0 1c-19,-11 -35,-15 -47,-2 -7,8 -9,18 -6,27 6,15 21,17 39,14l-1 1z"></path></g></svg>