<svg xmlns="http://www.w3.org/2000/svg" xmlns:xlink="http://www.w3.org/1999/xlink" xml:space="preserve" version="1.1" style="shape-rendering:geometricPrecision;text-rendering:geometricPrecision;image-rendering:optimizeQuality;" viewBox="0 0 333 333" x="0px" y="0px" fill-rule="evenodd" clip-rule="evenodd"><defs><style type="text/css">
   
    .fil0 {fill:#A1E5AB}
   
  </style></defs><g><path class="fil0" d="M206 146c7,0 12,7 12,17 0,9 -5,17 -12,17 -6,0 -11,-8 -11,-17 0,-10 5,-17 11,-17zm-81 86c8,0 14,6 14,14 0,7 -6,13 -14,13 -7,0 -13,-6 -13,-13 0,-8 6,-14 13,-14zm83 0c8,0 14,6 14,14 0,7 -6,13 -14,13 -7,0 -14,-6 -14,-13 0,-8 7,-14 14,-14zm-44 -196c-5,-7 -10,-15 -16,-22 -7,21 -5,37 2,53 -8,1 -15,3 -21,7 -6,-17 -16,-36 -33,-37 -8,-1 -15,1 -21,6 -4,3 -7,7 -9,12 -9,20 3,45 16,63 -10,16 -17,34 -21,52 -9,45 -3,102 33,133 34,29 111,29 145,0 36,-31 43,-88 33,-133 -4,-18 -11,-36 -20,-52 13,-18 25,-43 15,-63 -2,-5 -5,-9 -9,-12 -6,-5 -13,-7 -20,-6 -17,1 -28,20 -33,37 -5,-3 -10,-5 -15,-6 7,-21 -9,-41 -13,-60 -5,11 -11,21 -13,28zm-9 42c4,6 9,13 13,19 2,-10 9,-14 14,-19 5,2 9,3 14,5l-6 29 22 -21c5,-29 22,-53 39,-39 17,14 5,43 -14,65 7,10 13,22 18,34l-25 33 30 -15c2,8 3,16 4,24l-25 15 25 1c0,15 -2,30 -6,44 -16,-68 -167,-68 -182,0 -5,-14 -7,-29 -7,-44l25 -1 -24 -15c0,-8 2,-16 3,-24l30 15 -24 -33c4,-12 10,-24 17,-34 -19,-22 -31,-51 -13,-65 17,-14 33,10 38,39l23 21 -7 -29c6,-3 12,-4 18,-5zm-28 68c-7,0 -12,7 -12,17 0,9 5,17 12,17 6,0 11,-8 11,-17 0,-10 -5,-17 -11,-17zm-14 -47c-4,3 -7,7 -11,10 -6,-9 -14,-22 -16,-32 -1,-11 12,-17 19,-4 4,8 7,16 8,26zm-8 181c-4,-3 0,-9 4,-7 39,20 77,20 115,0 5,-2 8,4 4,7 -41,23 -82,23 -123,0zm62 -123l-9 40c6,0 11,0 17,1l-8 -41zm-43 -7c-3,0 -5,2 -5,5 0,3 2,6 5,6 3,0 6,-3 6,-6 0,-3 -3,-5 -6,-5zm96 -51c4,3 7,7 11,10 7,-9 15,-22 16,-32 2,-11 -12,-17 -18,-4 -4,8 -7,16 -9,26zm-11 51c3,0 5,2 5,5 0,3 -2,6 -5,6 -3,0 -5,-3 -5,-6 0,-3 2,-5 5,-5z"></path></g></svg>