<svg xmlns="http://www.w3.org/2000/svg" xmlns:xlink="http://www.w3.org/1999/xlink" xml:space="preserve" version="1.1" style="shape-rendering:geometricPrecision;text-rendering:geometricPrecision;image-rendering:optimizeQuality;" viewBox="0 0 333 333" x="0px" y="0px" fill-rule="evenodd" clip-rule="evenodd"><defs><style type="text/css">
   
    .fil0 {fill:#A1E5AB}
   
  </style></defs><g><g><path class="fil0" d="M122 19c15,0 34,11 36,60 1,12 2,21 3,29 -3,0 -5,0 -7,-1 -2,0 -5,0 -7,2 -1,-8 -3,-16 -3,-23 -1,-29 -8,-40 -17,-40 -9,0 -7,19 -5,39 2,12 9,34 16,49 -2,1 -4,2 -6,3 -12,-12 -22,-33 -25,-55 -4,-35 0,-63 15,-63zm13 185c3,0 5,1 7,1 1,0 1,-1 1,-1 -2,-4 -4,-8 -5,-12 -2,4 -6,7 -11,7 -6,0 -11,-6 -11,-13 0,-7 5,-13 11,-13 3,0 5,1 6,2 0,0 0,0 -1,0 -2,0 -3,2 -3,4 0,2 1,4 3,4 2,0 4,-2 4,-4 0,-1 -1,-2 -1,-3 1,1 2,2 2,3 1,-4 2,-9 5,-12l0 0c-5,-6 -11,-9 -18,-9 -7,0 -13,3 -18,9 -4,5 -7,11 -7,19 0,8 3,15 7,20 1,0 1,1 2,1 6,-2 16,-4 27,-3zm16 3c5,1 9,3 13,5 0,0 1,0 2,0 7,0 13,-3 17,-8 5,-5 8,-12 8,-20 0,-7 -3,-14 -8,-19 -4,-5 -10,-9 -17,-9 -7,0 -14,4 -18,9 -5,5 -7,12 -7,19 0,8 2,15 7,20 1,1 2,2 3,3zm17 9c1,1 2,3 2,4 -1,6 -11,10 -25,11 -1,5 -7,9 -15,9 -10,0 -17,-5 -15,-12 -10,-3 -17,-8 -17,-13 1,-2 2,-5 6,-6l0 0c0,-1 0,-1 -1,-1 -2,0 -6,0 -9,0 -15,1 -28,15 -27,32 2,19 17,33 34,33 16,0 22,-12 42,-10 18,1 25,12 36,13 18,3 36,-13 36,-35 0,-17 -13,-30 -29,-30 -2,0 -4,0 -6,1 -3,2 -7,3 -12,4zm-22 -7c1,1 2,1 3,1 3,2 6,4 10,5 0,0 0,1 0,1 2,3 -2,5 -7,4 -6,-1 -12,-4 -13,-7 0,0 0,0 0,0 2,-1 3,-2 5,-4 0,0 1,0 2,0zm23 -38c2,0 4,1 6,2 0,0 -1,0 -1,0 -2,0 -4,2 -4,4 0,2 2,4 4,4 2,0 3,-2 3,-4 0,-1 0,-2 -1,-3 3,3 5,6 5,10 0,7 -6,13 -12,13 -6,0 -12,-6 -12,-13 0,-7 6,-13 12,-13zm-40 -16c0,0 0,0 1,0 -1,0 -1,0 -1,0zm1 0c1,0 1,0 1,0 0,0 0,0 -1,0zm4 1c1,1 2,1 3,2 -1,-1 -2,-1 -3,-2zm3 2c0,0 0,0 0,0 0,0 0,0 0,0zm-40 38c-1,-3 -2,-6 -2,-10 0,-9 4,-17 9,-22 3,-4 7,-7 11,-8l0 0c10,-11 24,-20 42,-22 -15,-8 -26,-7 4,-9 -10,-8 -24,-18 7,-11 9,3 14,3 14,13 25,5 51,7 54,56 15,11 24,21 6,19 25,21 51,53 15,37 15,30 11,49 -2,28 -13,25 -26,48 -66,50 3,10 -1,12 -22,-4 -20,0 -40,-1 -62,-14 -1,8 -3,13 -17,-14 -5,10 -10,9 -15,-14 -5,12 -6,7 -7,-19 0,-4 -7,4 -7,2 0,-12 3,-21 7,-29 5,-12 21,-23 31,-29zm27 -42c0,0 0,0 0,0 0,0 0,0 0,0zm0 0l0 0 -1 0 0 0c0,0 0,0 0,0l0 0 0 0 0 0 0 0 -1 0 0 0 0 0 0 0 0 0 0 0 -1 0 0 0 0 0 0 0 0 0 0 0 0 1 0 0 0 0 -1 0 0 0 0 0 0 0 0 0 0 0 0 0 0 0 0 0 0 0 -1 0 0 0 0 0 0 0 0 0 0 0 0 0 -1 0 0 0 0 0 0 0 0 0 0 0 0 0 -1 0 0 0 0 0 0 0 0 0 0 0 0 0 0 0 0 0 7 -1zm17 112c1,10 2,20 5,30 10,0 20,-6 23,-19 -9,-6 -18,-10 -26,-10 -1,0 -1,-1 -2,-1zm-19 4c1,15 10,23 20,25 -3,-10 -3,-19 -4,-29 -6,1 -11,2 -16,4zm92 -262c18,0 32,24 32,64 0,26 -10,52 -21,67 -3,-2 -6,-5 -9,-6 0,-1 0,-1 0,-1 6,-14 12,-32 12,-46 0,-31 -11,-51 -25,-51 -14,0 -11,18 0,52 4,15 4,29 2,41 -2,-1 -5,-2 -8,-3 0,-12 -2,-28 -10,-50 -22,-53 9,-67 27,-67z"></path></g></g></svg>