<svg xmlns="http://www.w3.org/2000/svg" xmlns:xlink="http://www.w3.org/1999/xlink" xml:space="preserve" version="1.1" style="shape-rendering:geometricPrecision;text-rendering:geometricPrecision;image-rendering:optimizeQuality;" viewBox="0 0 333 333" x="0px" y="0px" fill-rule="evenodd" clip-rule="evenodd"><defs><style type="text/css">
   
    .fil0 {fill:#A1E5AB}
   
  </style></defs><g><path class="fil0" d="M29 247c-3,-5 -6,-11 -9,-17l0 0c-1,-4 -3,14 -4,11 -2,-5 -2,-19 -3,-24 -1,-3 -4,7 -5,4 0,-7 1,-14 3,-21l0 0c5,-21 21,-38 38,-51 2,-1 11,-8 12,-9 1,-2 2,-11 2,-13 1,-5 1,-10 2,-15 -26,0 -47,-21 -47,-46 0,-26 21,-47 48,-47 21,0 40,14 46,33 15,-7 33,-10 55,-10 21,0 39,3 54,10 7,-19 25,-33 46,-33 27,0 49,21 49,47 0,25 -22,46 -48,46 1,5 2,10 2,15 1,2 2,11 2,13 1,1 11,8 12,9 17,13 33,30 38,51l0 0c2,7 3,14 3,21 0,3 -4,-7 -5,-4 -1,5 0,19 -3,24 -1,3 -3,-15 -4,-11l0 0c-2,5 -5,11 -8,17 -11,17 -27,31 -43,41 -28,18 -62,26 -95,26 -34,0 -67,-8 -96,-26 -16,-10 -32,-24 -42,-41zm97 -118c-7,0 -11,6 -11,14 0,8 4,14 11,14 6,0 11,-6 11,-14 0,-8 -5,-14 -11,-14zm2 3c-3,0 -5,2 -5,4 0,3 2,5 5,5 2,0 5,-2 5,-5 0,-2 -3,-4 -5,-4zm-8 8c-1,0 -2,2 -2,3 0,2 1,3 2,3 2,0 3,-1 3,-3 0,-1 -1,-3 -3,-3zm88 -11c6,0 11,6 11,14 0,8 -5,14 -11,14 -6,0 -11,-6 -11,-14 0,-8 5,-14 11,-14zm-3 3c3,0 5,2 5,4 0,3 -2,5 -5,5 -2,0 -4,-2 -4,-5 0,-2 2,-4 4,-4zm8 8c1,0 3,2 3,3 0,2 -2,3 -3,3 -2,0 -3,-1 -3,-3 0,-1 1,-3 3,-3zm-46 26c19,1 33,4 38,13 2,3 -1,31 -38,32 -38,-1 -41,-29 -38,-32 4,-9 18,-12 38,-13zm32 88l1 13 9 -13c-3,0 -7,0 -10,0zm18 0c-14,19 -26,45 -50,45 -24,0 -37,-26 -51,-45 -25,-2 -48,-15 -48,-34 0,-2 0,-3 1,-5 -9,6 -25,14 -38,16 15,37 67,74 136,74 68,0 120,-37 135,-74 -13,-2 -29,-10 -37,-16 0,2 0,3 0,5 0,19 -22,32 -48,34zm-93 0l10 13 1 -13c-4,0 -7,0 -11,0zm11 14c7,11 17,24 32,23l0 0c3,1 7,0 10,-2 8,-3 15,-12 22,-21 -4,-2 -9,-3 -14,-3 -7,0 -13,3 -18,7 -5,-4 -12,-7 -19,-7 -5,0 -9,1 -13,3zm-9 -177c6,0 8,5 -1,5 -10,0 -15,6 -18,12 0,1 -2,-16 19,-17zm81 0c-6,0 -8,5 2,5 9,0 14,6 17,12 1,1 2,-16 -19,-17zm-82 99c-28,2 -53,18 -46,35 8,21 55,28 82,9l6 -4c10,7 16,11 29,14 19,3 51,-1 58,-19 7,-17 -18,-33 -45,-35 1,-5 2,-10 0,-14 -2,-3 -4,-5 -7,-7 2,1 4,1 5,1 12,0 21,-12 21,-27 0,-15 -9,-27 -21,-27 -11,0 -20,12 -20,27 0,10 4,19 10,23 -9,-4 -22,-4 -30,-4l0 0c-9,0 -21,0 -31,4 6,-4 11,-13 11,-23 0,-15 -10,-27 -21,-27 -12,0 -21,12 -21,27 0,15 9,27 21,27 2,0 3,0 5,-1 -3,2 -5,4 -7,7 -2,4 -1,9 1,14zm118 -124c7,6 13,14 18,24 15,1 34,-3 35,-19 1,-18 -13,-34 -28,-34 -14,0 -23,15 -25,29zm-170 24c4,-10 10,-18 17,-24 -1,-14 -10,-29 -25,-29 -15,0 -29,16 -28,34 1,16 21,20 36,19zm-49 141c1,0 3,0 4,0 -1,4 -2,8 -2,6 -1,-1 -1,-4 -2,-6zm281 0c2,0 3,0 4,0 0,2 -1,5 -1,6 -1,2 -2,-2 -3,-6z"></path></g></svg>