<svg xmlns="http://www.w3.org/2000/svg" xmlns:xlink="http://www.w3.org/1999/xlink" xml:space="preserve" version="1.1" style="shape-rendering:geometricPrecision;text-rendering:geometricPrecision;image-rendering:optimizeQuality;" viewBox="0 0 333 333" x="0px" y="0px" fill-rule="evenodd" clip-rule="evenodd"><defs><style type="text/css">
   
    .fil0 {fill:#A1E5AB}
   
  </style></defs><g><path class="fil0" d="M167 146c-9,-18 -27,-31 -49,-31 -29,0 -53,23 -53,53 0,28 23,52 51,53l0 34c0,26 25,39 51,39 25,0 50,-13 50,-39l0 -34c29,-1 51,-25 51,-53 0,-30 -23,-53 -53,-53 -21,0 -40,13 -48,31zm-30 -82c-1,-5 -3,-19 9,-25 16,-7 26,-9 28,-16 2,-6 5,18 -2,25 -6,7 17,-3 21,-13 3,-7 6,14 3,29 30,7 57,27 73,60 27,-13 56,9 56,38 0,25 -22,46 -47,41 -7,25 -21,47 -45,62 -25,61 -108,61 -133,0 -23,-15 -38,-37 -44,-62 -26,5 -48,-16 -48,-41 0,-29 29,-51 56,-38 16,-32 43,-52 73,-60zm1 200c-1,-2 1,-4 3,-4 2,-1 4,1 4,3 1,3 4,6 8,8 4,2 8,4 13,4 5,0 10,-1 14,-3 4,-2 7,-5 8,-9 1,-2 3,-4 5,-3 2,1 3,3 2,5 -1,6 -6,10 -12,13 -5,3 -11,4 -17,4 -6,0 -12,-1 -17,-4 -5,-3 -9,-8 -11,-14zm14 -57c5,0 9,4 9,9 0,5 -4,10 -9,10 -4,0 -8,-5 -8,-10 0,-5 4,-9 8,-9zm29 0c5,0 9,4 9,9 0,5 -4,10 -9,10 -4,0 -8,-5 -8,-10 0,-5 4,-9 8,-9zm-64 -55c10,0 18,9 18,20 0,11 -8,19 -18,19 -11,0 -19,-8 -19,-19 0,-11 8,-20 19,-20zm100 0c-11,0 -19,9 -19,20 0,11 8,19 19,19 10,0 19,-8 19,-19 0,-11 -9,-20 -19,-20zm-6 7c-4,0 -8,3 -8,8 0,4 4,8 8,8 4,0 8,-4 8,-8 0,-5 -4,-8 -8,-8zm-89 0c5,0 8,3 8,8 0,4 -3,8 -8,8 -4,0 -7,-4 -7,-8 0,-5 3,-8 7,-8zm159 28c1,-16 0,-32 -5,-48 16,-7 33,6 33,23 0,15 -13,28 -28,25zm-228 0c-2,-16 0,-32 5,-48 -16,-7 -34,6 -34,23 0,15 13,28 29,25z"></path></g></svg>