<svg xmlns="http://www.w3.org/2000/svg" xmlns:xlink="http://www.w3.org/1999/xlink" xml:space="preserve" version="1.1" style="shape-rendering:geometricPrecision;text-rendering:geometricPrecision;image-rendering:optimizeQuality;" viewBox="0 0 333 333" x="0px" y="0px" fill-rule="evenodd" clip-rule="evenodd"><defs><style type="text/css">
   
    .fil0 {fill:#A1E5AB}
   
  </style></defs><g><path class="fil0" d="M296 192c9,11 15,24 15,38 0,3 0,6 -1,9 -4,26 -26,45 -49,57 -28,15 -62,21 -94,21 -32,0 -67,-6 -95,-21 -23,-12 -45,-31 -49,-57 0,-3 -1,-6 -1,-9 0,-14 6,-27 15,-38 -3,-27 2,-52 13,-73 -14,-10 -23,-28 -23,-47 0,-31 22,-55 50,-55 22,0 40,15 47,37 13,-5 28,-7 43,-7 15,0 29,2 42,7 7,-22 26,-37 48,-37 27,0 50,24 50,55 0,19 -10,37 -24,47 11,21 16,46 13,73zm-142 103c3,0 5,-1 8,-1l0 -19c-13,-1 -23,-6 -23,-12 0,-8 12,-18 28,-18 15,0 27,10 27,18 0,6 -10,11 -23,12l0 19c3,0 6,1 8,1 5,1 7,6 6,8 64,-5 113,-35 113,-73 0,-12 -5,-24 -15,-34 11,-71 -44,-136 -116,-136 -73,0 -128,65 -116,136 -10,10 -16,22 -16,34 0,38 49,68 113,73 0,-2 1,-6 6,-8zm23 9c-7,-3 -14,-3 -21,0 4,0 7,0 11,0 3,0 6,0 10,0zm-60 -123c-3,1 -5,4 -5,7 0,4 4,8 8,8 3,0 6,-2 7,-5 3,10 -4,20 -15,20 -8,0 -15,-7 -15,-15 0,-11 10,-18 20,-15zm99 0c3,1 5,4 5,7 0,4 -4,8 -8,8 -3,0 -6,-2 -7,-5 -3,10 4,20 15,20 8,0 15,-7 15,-15 0,-11 -10,-18 -20,-15zm4 -32c20,0 53,25 55,57 2,32 -22,50 -43,50 -20,0 -52,-59 -52,-79 1,-20 20,-28 40,-28zm0 20c-15,0 -26,12 -26,27 0,15 11,27 26,27 14,0 26,-12 26,-27 0,-15 -12,-27 -26,-27zm-107 -20c-20,0 -52,25 -55,57 -2,32 23,50 43,50 21,0 53,-59 52,-79 -1,-20 -19,-28 -40,-28zm1 20c14,0 26,12 26,27 0,15 -12,27 -26,27 -15,0 -27,-12 -27,-27 0,-15 12,-27 27,-27z"></path></g></svg>