<svg xmlns="http://www.w3.org/2000/svg" xmlns:xlink="http://www.w3.org/1999/xlink" xml:space="preserve" version="1.1" style="shape-rendering:geometricPrecision;text-rendering:geometricPrecision;image-rendering:optimizeQuality;" viewBox="0 0 333 333" x="0px" y="0px" fill-rule="evenodd" clip-rule="evenodd"><defs><style type="text/css">
   
    .fil0 {fill:#A1E5AB}
   
  </style></defs><g><path class="fil0" d="M230 85c18,-7 45,-19 61,-28 21,-14 33,-12 33,16 3,42 -5,76 -31,94 0,0 0,1 0,1l27 12 -25 3 15 10c-33,122 -253,122 -287,0l15 -10 -25 -3 27 -12c1,0 1,-1 1,-1 -27,-18 -35,-52 -32,-94 1,-28 12,-30 34,-16 16,9 42,21 61,28l0 0c18,-9 39,-15 63,-15 23,0 44,6 62,15l1 0zm-101 57c-8,0 -14,8 -14,18 0,9 6,17 14,17 7,0 14,-8 14,-17 0,-3 -1,-6 -2,-9 -1,2 -3,3 -6,3 -3,0 -6,-3 -6,-7 0,-2 0,-3 2,-5 -1,0 -2,0 -2,0zm7 16c-2,0 -4,1 -4,3 0,3 2,4 4,4 2,0 4,-1 4,-4 0,-2 -2,-3 -4,-3zm31 29c-15,0 -28,2 -28,8 0,7 13,15 28,15 15,0 27,-8 27,-15 0,-6 -12,-8 -27,-8zm38 -45c7,0 14,8 14,18 0,9 -7,17 -14,17 -8,0 -14,-8 -14,-17 0,-3 0,-6 1,-9 2,2 4,3 6,3 4,0 7,-3 7,-7 0,-2 -1,-3 -2,-5 0,0 1,0 2,0zm-7 16c2,0 3,1 3,3 0,3 -1,4 -3,4 -3,0 -4,-1 -4,-4 0,-2 1,-3 4,-3zm-31 59c17,11 34,14 53,1 -4,7 -14,11 -24,14 -3,13 -14,19 -29,20 -16,-1 -27,-7 -30,-20 -10,-3 -19,-7 -24,-14 19,13 37,10 54,-1zm0 29c8,-1 18,-4 21,-11 -2,-2 -5,-2 -9,-2 -5,0 -9,1 -12,3 -3,-2 -8,-3 -13,-3 -3,0 -6,0 -9,2 4,7 13,10 22,11zm122 -91c-4,-15 -12,-28 -21,-40 5,-5 10,-11 16,-17 -6,2 -13,4 -19,7 4,-6 8,-11 13,-17 -6,3 -13,6 -19,10 6,-20 34,-31 52,-37 9,41 1,74 -22,94zm-245 0c5,-15 12,-28 21,-40 -5,-5 -9,-11 -16,-17 7,2 14,4 20,7 -5,-6 -9,-11 -14,-17 6,3 13,6 19,10 -6,-20 -34,-31 -52,-37 -8,41 -1,74 22,94zm8 29c11,12 26,19 43,19 18,0 22,-5 38,-9 0,-2 1,-4 2,-5 -2,0 -4,1 -6,1 -15,0 -27,-15 -27,-34 0,-18 12,-33 27,-33 15,0 27,15 27,33 0,11 -4,20 -11,26 8,-2 16,-2 22,-2 5,0 14,0 21,2 -6,-6 -10,-15 -10,-26 0,-18 12,-33 27,-33 15,0 27,15 27,33 0,19 -12,34 -27,34 -2,0 -5,-1 -7,-1 1,1 2,3 2,5 16,4 21,9 38,9 17,0 32,-7 43,-19l19 12c-36,106 -230,106 -266,0l18 -12z"></path></g></svg>