<svg xmlns="http://www.w3.org/2000/svg" xmlns:xlink="http://www.w3.org/1999/xlink" xml:space="preserve" version="1.1" style="shape-rendering:geometricPrecision;text-rendering:geometricPrecision;image-rendering:optimizeQuality;" viewBox="0 0 333 333" x="0px" y="0px" fill-rule="evenodd" clip-rule="evenodd"><defs><style type="text/css">
   
    .fil0 {fill:#A1E5AB}
   
  </style></defs><g><path class="fil0" d="M217 111c4,0 8,5 8,12 0,7 -4,13 -8,13 -5,0 -9,-6 -9,-13 0,-7 4,-12 9,-12zm-58 54l14 0c27,0 27,31 0,31l-14 0c-25,0 -24,-31 0,-31zm54 61c-32,38 -60,38 -93,0 37,14 56,14 93,0zm-96 -115c-5,0 -9,5 -9,12 0,7 4,13 9,13 5,0 9,-6 9,-13 0,-7 -4,-12 -9,-12zm-96 25c-7,18 -5,42 -3,65 1,30 -1,39 -10,59l31 -7 7 34 21 -10 6 16 17 -3 2 22 17 -9 -1 10c44,-3 73,-3 118,0l-1 -10 17 9 2 -22 16 3 6 -16 21 10 8 -34 30 7c-9,-20 -11,-29 -9,-59 1,-23 4,-47 -3,-65 2,-30 8,-102 -26,-114 -24,-8 -51,19 -67,37 -25,-6 -81,-6 -107,0 -16,-18 -43,-45 -67,-37 -34,12 -28,84 -25,114zm100 164l2 -17 -21 10 -2 -17 -19 4 -7 -19 -20 9 -7 -34 -22 8c7,-12 4,-22 4,-37 23,-18 60,-30 101,-34 3,-11 13,-20 29,-20l14 0c17,0 27,9 31,20 40,4 78,16 100,34 0,15 -3,25 4,37l-22 -8 -7 34 -19 -9 -7 19 -20 -4 -2 17 -20 -10 1 17c-53,-3 -38,-3 -91,0zm45 -233l-17 63 -10 -64c16,-1 39,-1 56,0l-11 64 -18 -63zm-95 -4c-13,0 -23,11 -23,24 0,6 2,11 5,15 6,-7 16,-13 28,-17 4,-1 8,-2 12,-3 -2,-11 -11,-19 -22,-19zm46 30c-10,0 -19,12 -19,27 0,14 9,26 19,26 10,0 18,-12 18,-26 0,-15 -8,-27 -18,-27zm-84 43c-4,15 -5,32 -4,51l49 -26 -36 -2 34 -25c-5,0 -42,-3 -43,2zm230 -73c12,0 23,11 23,24 0,6 -2,11 -6,15 -6,-7 -16,-13 -28,-17 -4,-1 -8,-2 -12,-3 2,-11 12,-19 23,-19zm-46 30c10,0 18,12 18,27 0,14 -8,26 -18,26 -10,0 -19,-12 -19,-26 0,-15 9,-27 19,-27zm84 43c4,15 4,32 3,51l-49 -26 36 -2 -34 -25c5,0 42,-3 44,2z"></path></g></svg>